<svg width="20" height="20" viewBox="0 0 20 20" fill="none" xmlns="http://www.w3.org/2000/svg">
  <g opacity="0.5">
    <path d="M10 14V14.0352M8.00087 7.53777C8.00087 6.41234 8.8963 5.5 10.0009 5.5C11.1054 5.5 12.0009 6.41234 12.0009 7.53777C12.0009 8.6632 11.1054 9.57555 10.0009 9.57555C10.0009 9.57555 10 10.1838 10 10.9341M18 5L18 15.0001C18 16.6569 16.6569 18.0001 15 18.0001H5C3.34315 18.0001 2 16.6569 2 15.0001V5C2 3.34315 3.34315 2 5 2H15C16.6569 2 18 3.34315 18 5Z" stroke="#191919" stroke-width="1.5" stroke-linecap="round" stroke-linejoin="round"/>
  </g>
</svg>
